<svg width="37" height="33" viewBox="0 0 37 33" fill="none" xmlns="http://www.w3.org/2000/svg">
<path d="M34.3604 9.96915C34.2108 8.68404 34.1897 6.47061 35.2344 5.72737C35.2531 5.71374 35.267 5.69406 35.2833 5.67716C36.1374 5.36502 36.7285 4.92698 36.2645 4.33754L23.6652 0L3.26412 3.24079C3.26412 3.24079 0.927934 3.62231 1.13663 7.76934C1.24992 10.0264 1.8695 11.1349 2.41134 11.6804L0.737237 12.2569C0.272583 12.8463 0.863559 13.2845 1.71778 13.5961C1.73401 13.6135 1.7477 13.6331 1.7667 13.6467C2.81073 14.3906 2.79063 16.6038 2.64046 17.8891C-1.11022 19.106 0.236144 19.5025 0.236144 19.5025L1.05889 19.73C0.480176 20.3275 -0.0945676 21.4606 0.0130933 23.6096C0.2219 27.7558 2.1408 28.042 2.1408 28.042L15.4912 33L35.642 27.4233C35.642 27.4233 36.9888 27.0261 33.2371 25.8091C33.0863 24.5258 33.0653 22.3128 34.1118 21.5671C34.131 21.5538 34.145 21.5338 34.1606 21.5171C35.0148 21.205 35.6053 20.7673 35.1412 20.1779L34.2654 19.8757C34.8495 19.4733 35.7269 18.4214 35.8644 15.6892C35.9592 13.8099 35.5301 12.7092 35.0335 12.0612L36.7646 11.5825C36.7648 11.5833 38.1116 11.1861 34.3604 9.96915ZM17.5055 9.91603L20.8941 9.12032L32.3457 6.43149L34.0518 6.03054C33.5067 7.17057 33.5295 8.73072 33.6197 9.73348C33.6395 9.96032 33.6622 10.1675 33.6843 10.3249L31.8169 10.8555L17.3631 14.9638L17.5055 9.91603ZM2.94942 13.9512L4.65532 14.3521L15.653 16.9352L16.6137 17.16L19.495 17.8367L19.6371 22.8845L4.78164 18.6616L3.31712 18.2458C3.33865 18.0881 3.3614 17.8812 3.38205 17.6537C3.47171 16.6517 3.49501 15.0912 2.94942 13.9512ZM2.28667 7.56975C2.26602 6.46669 2.43806 5.66895 2.78577 5.26346C3.00706 5.00457 3.2682 4.9507 3.44731 4.9507C3.54194 4.9507 3.61007 4.96571 3.61471 4.96571L12.405 8.24006L16.7906 9.87377L16.6467 14.9568L4.34338 11.0157L3.6941 10.8079C3.67025 10.8002 3.6379 10.7949 3.61294 10.7936C3.56226 10.7895 2.34586 10.6615 2.28667 7.56975ZM15.523 30.7978L2.57067 26.6487C2.54671 26.6408 2.51469 26.6355 2.48973 26.6341C2.43817 26.6302 1.22121 26.5024 1.16236 23.4114C1.14138 22.3069 1.3143 21.5099 1.66135 21.1041C1.88319 20.8452 2.14445 20.7913 2.32322 20.7913C2.41807 20.7913 2.48598 20.8058 2.49095 20.8058C2.49095 20.8058 2.4915 20.8058 2.49095 20.8058L15.666 25.7146L15.523 30.7978ZM32.4953 25.5737C32.5157 25.8013 32.5385 26.0081 32.5606 26.1658L16.239 30.805L16.3816 25.7571L19.8711 24.9374L20.3864 25.0799L22.3179 24.3626L31.2213 22.2722L32.9281 21.871C32.3823 23.0109 32.405 24.5717 32.4953 25.5737ZM33.3944 18.7135C33.3647 18.7143 33.335 18.7188 33.307 18.7289L32.076 19.1226L20.355 22.8778L20.2117 17.7948L24.0572 16.3617L33.3687 12.892C33.37 12.8914 33.8586 12.7674 34.2172 13.1841C34.5644 13.5896 34.7366 14.3873 34.7163 15.4904C34.6556 18.5811 33.4386 18.7096 33.3944 18.7135Z" fill="#111"/>
</svg>
