<svg width="35" height="30" viewBox="0 0 35 30" fill="none" xmlns="http://www.w3.org/2000/svg">
<g clip-path="url(#clip0)">
<path d="M16.4746 13.2422C16.4746 13.7276 16.0156 14.1211 15.4492 14.1211C14.8829 14.1211 14.4238 13.7276 14.4238 13.2422C14.4238 12.7567 14.8829 12.3633 15.4492 12.3633C16.0156 12.3633 16.4746 12.7567 16.4746 13.2422Z" fill="black"/>
<path d="M20.5762 13.2422C20.5762 13.7276 20.1171 14.1211 19.5508 14.1211C18.9844 14.1211 18.5254 13.7276 18.5254 13.2422C18.5254 12.7567 18.9844 12.3633 19.5508 12.3633C20.1171 12.3633 20.5762 12.7567 20.5762 13.2422Z" fill="black"/>
<path d="M24.6777 13.2422C24.6777 13.7276 24.2187 14.1211 23.6523 14.1211C23.086 14.1211 22.627 13.7276 22.627 13.2422C22.627 12.7567 23.086 12.3633 23.6523 12.3633C24.2187 12.3633 24.6777 12.7567 24.6777 13.2422Z" fill="black"/>
<path d="M32.7994 25.384L35.6996 22.8981C36.1001 22.5548 36.1001 21.9984 35.6996 21.655L33.5244 19.7906L34.2496 19.1692C34.5169 18.94 34.6155 18.6031 34.506 18.293C34.3962 17.9829 34.0964 17.7494 33.7254 17.686L29.7793 17.0094V11.1523C29.7793 10.6669 29.3203 10.2734 28.7539 10.2734H22.3284C20.4098 7.05147 16.5368 5 12.2793 5C6.05993 5 1 9.33708 1 14.668C1 19.9989 6.05993 24.3359 12.2793 24.3359C16.5368 24.3359 20.4098 22.2845 22.3284 19.0625H25.6382L26.7186 23.6919C26.7926 24.0098 27.0649 24.2668 27.4268 24.3607C27.7886 24.4547 28.1817 24.3703 28.449 24.1409L29.1739 23.5195L31.3492 25.384C31.7497 25.7271 32.3991 25.7271 32.7994 25.384ZM27.7285 16.6579L26.4751 16.4429C26.1389 16.3853 25.7912 16.4754 25.5488 16.6833C25.3546 16.8497 25.2489 17.074 25.2489 17.3047C23.8539 17.3047 14.5752 17.3047 13.373 17.3047V12.0312H27.7285V16.6579ZM12.2793 22.5781C11.6689 22.5781 10.9044 21.7846 10.3311 20.5564C9.6998 19.2037 9.31528 17.4498 9.22449 15.5469H11.3223V18.1836C11.3223 18.6691 11.7813 19.0625 12.3477 19.0625H14.7784C14.1213 21.3536 13.0542 22.5781 12.2793 22.5781ZM12.2793 6.75781C13.0542 6.75781 14.1213 7.98233 14.7784 10.2734H12.3477C11.7813 10.2734 11.3223 10.6669 11.3223 11.1523V13.7891H9.22449C9.31528 11.8861 9.6998 10.1322 10.3311 8.77953C10.9044 7.55135 11.6689 6.75781 12.2793 6.75781ZM19.9542 10.2734H16.8834C16.591 9.11736 16.195 8.12767 15.7154 7.3275C17.4287 7.91664 18.9128 8.93837 19.9542 10.2734ZM8.85358 7.32315C8.70351 7.57263 8.56065 7.84019 8.42714 8.12675C7.70376 9.67651 7.2669 11.6611 7.1721 13.7891H3.10819C3.48924 10.8472 5.75979 8.38722 8.85358 7.32315ZM3.10819 15.5469H7.1721C7.2669 17.6748 7.70376 19.6594 8.42687 21.2092C8.56065 21.4957 8.70325 21.7633 8.85358 22.0128C5.75979 20.9487 3.48924 18.4887 3.10819 15.5469ZM15.7154 22.0084C16.195 21.2083 16.591 20.2186 16.8834 19.0625H19.954C18.9128 20.3976 17.4287 21.4193 15.7154 22.0084ZM29.1742 21.3976C28.9117 21.3976 28.6492 21.4834 28.449 21.655L28.3536 21.7368L27.5811 18.4251C28.5419 18.5899 30.4848 18.9229 31.4445 19.0874L31.3494 19.1692C30.9489 19.5125 30.9489 20.0689 31.3494 20.4122L33.5244 22.2767L32.0744 23.5195L29.8992 21.655C29.6989 21.4834 29.4364 21.3976 29.1742 21.3976Z" fill="black"/>
<path d="M1.02539 5.33203C1.59176 5.33203 2.05078 4.93858 2.05078 4.45312V1.81641H5.12695C5.69332 1.81641 6.15234 1.42296 6.15234 0.9375C6.15234 0.452042 5.69332 0.0585938 5.12695 0.0585938H1.02539C0.459023 0.0585938 0 0.452042 0 0.9375V4.45312C0 4.93858 0.459023 5.33203 1.02539 5.33203Z" fill="black"/>
<path d="M33.9746 0.0585938H29.873C29.3067 0.0585938 28.8477 0.452042 28.8477 0.9375C28.8477 1.42296 29.3067 1.81641 29.873 1.81641H32.9492V4.45312C32.9492 4.93858 33.4082 5.33203 33.9746 5.33203C34.541 5.33203 35 4.93858 35 4.45312V0.9375C35 0.452042 34.541 0.0585938 33.9746 0.0585938Z" fill="black"/>
<path d="M5.12695 28.1836H2.05078V25.6641C2.05078 25.1786 1.59176 24.7852 1.02539 24.7852C0.459023 24.7852 0 25.1786 0 25.6641V29.0625C0 29.548 0.459023 29.9414 1.02539 29.9414H5.12695C5.69332 29.9414 6.15234 29.548 6.15234 29.0625C6.15234 28.577 5.69332 28.1836 5.12695 28.1836Z" fill="black"/>
<path d="M33.9746 24.7852C33.4082 24.7852 32.9492 25.1786 32.9492 25.6641V28.1836H29.873C29.3067 28.1836 28.8477 28.577 28.8477 29.0625C28.8477 29.548 29.3067 29.9414 29.873 29.9414H33.9746C34.541 29.9414 35 29.548 35 29.0625V25.6641C35 25.1786 34.541 24.7852 33.9746 24.7852Z" fill="black"/>
</g>
<defs>
<clipPath id="clip0">
<rect width="35" height="30" fill="white"/>
</clipPath>
</defs>
</svg>
